<?xml version="1.0" encoding="utf-8"?>
<!-- Generator: Adobe Illustrator 25.0.1, SVG Export Plug-In . SVG Version: 6.00 Build 0)  -->
<svg version="1.1" id="Layer_1" xmlns="http://www.w3.org/2000/svg" xmlns:xlink="http://www.w3.org/1999/xlink" x="0px" y="0px"
	 viewBox="0 0 960 552.8" style="enable-background:new 0 0 960 552.8;" xml:space="preserve">
<style type="text/css">
	.st0{fill:#006C39;}
	.st1{fill:#C39D4B;}
	.st2{clip-path:url(#SVGID_2_);}
</style>
<path class="st0" d="M601.5,291.2h18.8l-9.4-22L601.5,291.2z M615,259.6c4.8,11.2,13,30.2,24.6,57.1c1.9,3.9,4,5.9,6.4,5.9h1.6
	c0.4,0,0.6,0.2,0.6,0.6c0,0.4-0.2,0.6-0.6,0.6H627c-0.4,0-0.6-0.2-0.6-0.6c0-0.4,0.2-0.6,0.6-0.6h1.6c0.8,0,1.4-0.2,1.9-0.5
	c0.5-0.3,0.8-0.8,0.9-1.4c0.1-0.6,0.1-1.2,0.1-1.8c0-0.6-0.2-1.3-0.5-2.2c-0.3-0.9-0.5-1.6-0.7-2.2c-0.2-0.6-0.5-1.2-0.8-2
	l-8.7-20.2h-19.8l-9,21c-2.6,6.1-2.1,9.2,1.3,9.2h1.6c0.4,0,0.6,0.2,0.6,0.6c0,0.4-0.2,0.6-0.6,0.6h-14c-0.4,0-0.6-0.2-0.6-0.6
	c0-0.4,0.2-0.6,0.6-0.6h1.6c2.8,0,5.1-1.9,6.9-5.6l21.1-49.1l3.6-8.2H615z M534.4,311.9v-40.5c0-7.1-1.9-10.6-5.6-10.6h-1.6
	c-0.4,0-0.6-0.2-0.6-0.6s0.2-0.6,0.6-0.6h14.3l32.3,56.1v-44.3c0-7.1-1.9-10.6-5.6-10.6h-1.6c-0.4,0-0.6-0.2-0.6-0.6
	s0.2-0.6,0.6-0.6H582c0.4,0,0.6,0.2,0.6,0.6s-0.2,0.6-0.6,0.6h-1.6c-3.7,0-5.6,3.5-5.6,10.6v52.3H570l-34.4-60.1v48.3
	c0,7.1,1.8,10.6,5.5,10.6h1.6c0.4,0,0.6,0.2,0.6,0.6c0,0.4-0.2,0.6-0.6,0.6h-15.4c-0.4,0-0.6-0.2-0.6-0.6c0-0.4,0.2-0.6,0.6-0.6h1.6
	C532.5,322.5,534.4,319,534.4,311.9z M518,271.4v40.5c0,7.1,1.9,10.6,5.6,10.6h1.6c0.4,0,0.6,0.2,0.6,0.6c0,0.4-0.2,0.6-0.6,0.6
	h-22.5c-0.4,0-0.6-0.2-0.6-0.6c0-0.4,0.2-0.6,0.6-0.6h1.6c3.7,0,5.6-3.5,5.6-10.6v-40.5c0-7.1-1.9-10.6-5.6-10.6h-1.6
	c-0.4,0-0.6-0.2-0.6-0.6s0.2-0.6,0.6-0.6h22.5c0.4,0,0.6,0.2,0.6,0.6c0,0.4-0.2,0.6-0.6,0.6h-1.6C519.9,260.8,518,264.3,518,271.4z
	 M472.6,258.3c8.5,0,15.3,2.3,20.3,7c0.8,0.7,1.3,0.6,1.5-0.1l0.2-1.4c0.1-0.2,0.2-0.4,0.4-0.5c0.2-0.1,0.4-0.1,0.5,0
	c0.2,0.1,0.2,0.3,0.2,0.6l-3,18.2c0,0.3-0.1,0.5-0.3,0.6c-0.2,0.1-0.4,0.1-0.6,0c-0.2-0.2-0.2-0.4-0.2-0.7l0.7-4.9
	c0.5-3.2-0.2-6.2-2.2-9c-2-2.8-4.7-5-7.9-6.5c-3.3-1.5-6.5-2.2-9.7-2.2c-3.5,0-6.7,0.6-9.6,1.8c-2.8,1.2-5.2,2.8-7.1,4.9
	c-1.9,2-3.5,4.4-4.7,7.1c-1.3,2.7-2.2,5.6-2.7,8.7c-0.6,3-0.9,6.2-0.9,9.6c0,3.4,0.3,6.6,0.9,9.6c0.6,3,1.5,5.9,2.7,8.7
	c1.3,2.8,2.8,5.2,4.7,7.2c1.9,2,4.3,3.6,7.1,4.8c2.9,1.2,6.1,1.8,9.6,1.8c10.2,0,15.3-5.8,15.3-17.3c0-7.1-1.9-10.6-5.6-10.6h-1.6
	c-0.4,0-0.6-0.2-0.6-0.6c0-0.4,0.2-0.6,0.6-0.6h22.5c0.4,0,0.6,0.2,0.6,0.6c0,0.4-0.2,0.6-0.6,0.6h-1.6c-3.5,0-5.4,3.2-5.6,9.7
	c0,2,0,5.1,0,9.1s0,7.1,0,9.1h-0.9c-0.5-1.5-1.5-2.6-3-3.2c-1.5-0.6-2.9-0.5-4.4,0.3c-4.5,2.8-9.6,4.2-15.3,4.2
	c-6,0-11.6-1.5-16.8-4.5c-5.1-3-9.2-7-12.1-12.1c-3-5.1-4.4-10.7-4.4-16.7c0-6,1.5-11.6,4.4-16.7c3-5.1,7-9.1,12.1-12.1
	C460.9,259.8,466.5,258.3,472.6,258.3z M465.7,350.9c-3.2,0.4-6.3,0.2-9.3-0.6c-3-0.8-5.6-1.9-7.9-3.3c-2.3-1.4-4.6-3.4-6.9-6
	c-2.3-2.5-4.2-4.9-5.7-7.1c-1.5-2.2-3.1-4.9-4.9-8.2c-1.7-3.3-3-6-3.9-8c-0.9-2-2-4.5-3.2-7.5c-0.4-0.7-1-2.2-1.8-4.3
	c-0.9-2.1-1.5-3.8-2.1-4.9c-0.5-1.2-1.3-2.7-2.3-4.4c-1-1.7-2-3-3-3.9c-0.9-0.9-2.1-1.5-3.5-2c-1.4-0.5-2.9-0.5-4.4-0.1
	c-2.6,0.7-4.7,2.2-6.1,4.5c-1,1.6-1.6,3.5-1.6,5.4c0,2.3,0.7,4.2,2.1,5.6c1.4,1.4,3,2,4.8,1.8c1.8-0.2,3.3-1.2,4.4-2.9
	c0.2-0.2,0.4-0.3,0.6-0.3c0.7,0.2,1.3,0.7,1.7,1.3c0.5,0.6,0.7,1.3,0.8,1.9c0,0.7-0.1,1.3-0.4,2c-0.3,0.6-0.8,1.2-1.6,1.6
	c-0.8,0.4-1.8,0.5-3.1,0.4c-2.9-0.2-5.4-1.5-7.5-3.6c-2-2.2-3.1-4.7-3.1-7.7c0-2.2,0.6-4.2,1.8-6c2.2-3.5,5.8-5.4,10.9-5.8
	c1.7-0.1,3.3,0,4.7,0.2c1.4,0.2,2.6,0.4,3.6,0.8c1,0.3,2,0.9,2.9,1.7c0.9,0.8,1.7,1.6,2.2,2.2c0.5,0.6,1.2,1.6,1.9,2.9
	c0.7,1.3,1.2,2.4,1.6,3.2c0.4,0.8,0.9,2.1,1.6,3.7c0.4,0.9,0.6,1.5,0.8,2l5.1,11.5c1.5,3.1,2.9,6,4.4,8.8c1.5,2.7,3.3,5.7,5.4,8.9
	c2.1,3.2,4.2,5.9,6.3,8.1c2.1,2.2,4.4,4,6.8,5.4c2.5,1.4,4.9,2,7.2,1.7c1.6-0.1,3.1-0.6,4.5-1.5c1.4-0.9,2.6-2,3.4-3.3
	c1-1.6,1.6-3.5,1.6-5.4c0-2.5-0.8-4.5-2.4-6c-1.6-1.5-3.3-2-5.2-1.6c-1.8,0.4-3,1.5-3.5,3.4c-0.1,0.2-0.4,0.2-1.1-0.1
	c-0.6-0.3-1.1-0.7-1.5-1.3c-0.4-0.5-0.6-1.1-0.7-1.7c-0.1-0.6,0-1.2,0.2-1.8c0.8-1.8,2.6-2.6,5.5-2.3c3.4,0.4,6,2.1,8,4.9
	c1.3,1.9,1.9,4.1,1.9,6.5c0,2.2-0.6,4.2-1.8,6C472.3,348.8,469.5,350.5,465.7,350.9z M410.3,259.6l15.4,35.8c-0.9-1.5-1.9-2.8-3-3.8
	c-2.1-1.9-4.9-3-8.2-3.3l-8.2-19.1l-18.9,44.2c-2.6,6.1-2.1,9.2,1.3,9.2h1.6c0.4,0,0.6,0.2,0.6,0.6c0,0.4-0.2,0.6-0.6,0.6h-14
	c-0.4,0-0.6-0.2-0.6-0.6c0-0.4,0.2-0.6,0.6-0.6h1.6c2.8,0,5.1-1.9,6.9-5.6l21.1-49.1l3.6-8.2H410.3z M312.6,271.2
	c-0.1,2.3,0.6,4.1,1.9,5.5c1.3,1.4,3,2,4.9,1.8c2-0.2,3.6-1.4,4.9-3.4c0.2-0.2,0.4-0.3,0.6-0.3c1.6,0.5,2.4,1.6,2.6,3.1
	c0.1,1.5-0.5,2.6-1.9,3.4c-1.5,0.9-3,1.2-4.7,1c-1.7-0.3-3.2-0.9-4.7-1.8c-1.4-0.9-2.6-2.2-3.5-3.8c-0.9-1.6-1.4-3.4-1.4-5.3
	c0-3.9,1.5-6.9,4.5-8.9c3-2,6.5-3,10.5-3h27.4c5.2,0,9.8,1.2,13.9,3.6c4.1,2.4,7.1,5.5,9.2,9.2c2.1,3.8,3.6,7.9,4.6,12.5
	c1,4.6,1,9.1,0,13.7c-0.9,4.6-2.4,8.7-4.5,12.5c-2,3.8-5,6.9-9,9.2c-3.9,2.4-8.4,3.5-13.3,3.5h-28.9c-0.4,0-0.6-0.2-0.6-0.6
	c0-0.4,0.2-0.6,0.6-0.6h1.6c3.7,0,5.6-3.5,5.6-10.6v-40.6c0-1.5-0.2-2.9-0.5-4.4c-0.4-1.5-1.1-2.9-2.2-4.2c-1.1-1.3-2.4-2-4-2
	c-3.8,0-7,0.8-9.6,2.5C314.2,264.9,312.8,267.5,312.6,271.2z M351.7,260.8h-10.4v61.8h11.5c3.8,0,7.2-1.1,10.2-3.4
	c3-2.3,5.3-5.2,6.9-8.8c1.6-3.6,2.8-7.7,3.6-12c0.8-4.4,0.8-8.8,0.1-13.2c-0.7-4.4-1.9-8.4-3.5-12c-1.6-3.6-4-6.6-7.3-8.8
	C359.7,261.9,355.9,260.8,351.7,260.8z"/>
<path class="st0" d="M637.8,345.1v-9.4c0-0.7-0.1-1.3-0.3-1.7c-0.2-0.4-0.4-0.8-0.6-1s-0.4-0.4-0.6-0.6l1.5-1.1l2.4,2.2
	c0.7-0.7,1.4-1.2,2.1-1.7c0.6-0.4,1.4-0.6,2.3-0.6c0.5,0,1,0.1,1.5,0.4c0.5,0.2,1,0.7,1.4,1.3c0.4,0.6,0.6,1.6,0.6,2.8v9.3h-2.5v-9
	c0-0.9-0.2-1.7-0.5-2.2c-0.3-0.5-0.9-0.8-1.8-0.8c-0.9,0-1.8,0.6-3,1.7v10.3H637.8z M621.5,350.3c1.2,0,2.2-0.2,3.1-0.7
	c0.9-0.5,1.6-1,2.1-1.7c0.5-0.6,0.7-1.2,0.7-1.8c-0.4-0.2-0.9-0.3-1.5-0.4c-0.6-0.1-1.2-0.2-1.7-0.2c-0.6,0-1.1,0-1.6,0
	c-0.6,0-1.2,0-1.8,0c-0.5,0-1-0.1-1.5-0.1c-0.3,0.2-0.6,0.6-0.9,1c-0.3,0.5-0.4,0.9-0.4,1.5c0,0.7,0.3,1.2,0.8,1.7
	C619.4,350.1,620.3,350.3,621.5,350.3z M621.9,339.8c1.8,0,2.7-1.2,2.7-3.7c0-0.7-0.1-1.3-0.4-1.9c-0.2-0.6-0.6-1-1-1.4
	c-0.4-0.4-0.9-0.5-1.4-0.5c-0.9,0-1.6,0.4-2,1.1c-0.5,0.7-0.7,1.6-0.7,2.8c0,1,0.3,1.9,0.8,2.6C620.5,339.4,621.1,339.8,621.9,339.8
	z M621,351.7c-1,0-1.8-0.1-2.6-0.4c-0.8-0.2-1.4-0.6-1.9-1.1c-0.5-0.5-0.7-1.1-0.7-1.8c0-0.6,0.2-1.2,0.5-1.8c0.3-0.6,1-1.1,1.9-1.5
	c-0.4-0.2-0.8-0.4-1-0.7c-0.2-0.3-0.4-0.7-0.4-1.2c0-0.5,0.2-1,0.6-1.5c0.4-0.5,0.9-1,1.5-1.5c-0.7-0.3-1.2-0.8-1.6-1.5
	c-0.4-0.7-0.6-1.5-0.6-2.4c0-0.9,0.2-1.7,0.5-2.4c0.3-0.6,0.8-1.2,1.3-1.6c0.5-0.4,1.1-0.7,1.7-0.9c0.6-0.2,1.2-0.3,1.8-0.3
	c0.5,0,1,0.1,1.5,0.2s0.9,0.3,1.3,0.6l2.6-0.7l0.6,1.3l-1.9,0.9c0.2,0.3,0.3,0.7,0.4,1c0.1,0.4,0.1,0.8,0.1,1.2
	c0,0.9-0.2,1.7-0.5,2.4c-0.3,0.6-0.8,1.1-1.4,1.5c-0.6,0.4-1.2,0.7-1.8,0.8c-0.6,0.2-1.2,0.3-1.8,0.3c-0.1,0-0.3,0-0.4,0
	c-0.1,0-0.3,0-0.4,0c-0.2,0.1-0.4,0.2-0.7,0.3c-0.3,0.2-0.5,0.4-0.7,0.6c-0.2,0.2-0.3,0.5-0.3,0.7c0,0.4,0.3,0.7,0.9,0.8
	c0.6,0.1,1.5,0.2,2.7,0.2c1.8,0,3.2,0.2,4.3,0.5c1.1,0.3,1.6,1,1.6,2.1c0,0.9-0.3,1.8-1,2.7c-0.6,0.9-1.5,1.6-2.6,2.2
	C623.8,351.4,622.5,351.7,621,351.7z M605.9,328.9c-0.4,0-0.8-0.2-1.1-0.5c-0.3-0.3-0.4-0.7-0.4-1.1c0-0.4,0.1-0.8,0.4-1.1
	c0.3-0.3,0.7-0.4,1.1-0.4c0.4,0,0.8,0.1,1.1,0.4c0.3,0.3,0.5,0.7,0.5,1.1c0,0.4-0.2,0.8-0.5,1.1
	C606.7,328.8,606.3,328.9,605.9,328.9z M604.7,345.1v-13.5h2.5v13.5H604.7z M590.7,345.4c-0.9,0-1.7-0.1-2.5-0.4
	c-0.8-0.3-1.3-0.5-1.7-0.7v-1.1c0.2,0.1,0.6,0.3,1,0.4c0.4,0.2,0.9,0.3,1.4,0.4c0.5,0.1,1,0.2,1.4,0.2c1.1,0,1.8-0.2,2.3-0.7
	c0.5-0.5,0.7-1,0.7-1.5c0-0.6-0.2-1.1-0.7-1.5c-0.4-0.4-1-0.8-1.6-1.1c-0.6-0.3-1.3-0.7-2-1.1c-0.7-0.4-1.2-0.9-1.6-1.4
	c-0.4-0.5-0.7-1.2-0.7-2c0-0.5,0.1-1.1,0.4-1.6c0.3-0.5,0.7-1,1.3-1.4c0.6-0.4,1.4-0.6,2.5-0.6c1.1,0,1.9,0.1,2.6,0.3
	c0.7,0.2,1.2,0.4,1.5,0.5l-0.3,2c-0.8-0.4-1.6-0.8-2.3-1c-0.7-0.2-1.3-0.4-1.8-0.5c-0.5,0-1,0.2-1.3,0.6c-0.3,0.4-0.5,0.8-0.5,1.3
	c0,0.6,0.2,1.1,0.7,1.5c0.5,0.4,1,0.8,1.7,1.2c0.7,0.4,1.3,0.7,2,1.1c0.7,0.4,1.2,0.9,1.7,1.4c0.5,0.5,0.7,1.2,0.7,2
	c0,1.1-0.4,2-1.3,2.8C593.6,345,592.3,345.4,590.7,345.4z M569.2,336.8h7c-0.1-0.9-0.3-1.6-0.6-2.2c-0.3-0.6-0.7-1-1.2-1.3
	c-0.4-0.3-0.9-0.5-1.3-0.6c-0.4-0.1-0.8-0.2-1.1-0.2c-0.7,0.3-1.3,0.9-1.8,1.6C569.7,335,569.4,335.8,569.2,336.8z M573.2,345.4
	c-1.2,0-2.3-0.3-3.3-0.8c-1-0.5-1.8-1.3-2.3-2.3c-0.6-1-0.8-2.2-0.8-3.6c0-1.7,0.3-3,1-4.2c0.6-1.1,1.5-2,2.5-2.5
	c1-0.6,2.1-0.9,3.3-0.9c0.9,0,1.8,0.2,2.6,0.7c0.8,0.5,1.4,1.2,1.9,2.2c0.5,1,0.7,2.2,0.7,3.6h-9.5c0,1.6,0.2,2.8,0.7,3.7
	c0.5,0.9,1.1,1.5,1.9,1.9c0.8,0.4,1.6,0.5,2.5,0.5c0.8,0,1.5-0.1,2.1-0.2c0.6-0.2,1.1-0.3,1.6-0.6v1c-0.6,0.4-1.3,0.7-2.1,1
	C575,345.3,574.1,345.4,573.2,345.4z M551.4,344.1c0.8-0.1,1.5-0.2,2.1-0.5c0.6-0.3,1.1-0.6,1.4-0.9c0.4-0.3,0.5-0.5,0.5-0.7v-8.3
	c-0.5-0.4-1.1-0.6-1.5-0.8c-0.5-0.2-0.9-0.3-1.4-0.3c-0.8,0-1.5,0.3-2,0.8c-0.6,0.5-1,1.2-1.3,2.1c-0.3,0.9-0.5,1.8-0.5,2.9
	c0,1.7,0.3,3,0.8,4C550.1,343.3,550.7,343.9,551.4,344.1z M558,345.5l-2.4-2.2c-0.7,0.7-1.4,1.2-2.1,1.6c-0.6,0.4-1.4,0.6-2.3,0.6
	c-0.4,0-0.9-0.1-1.5-0.3c-0.6-0.2-1.1-0.5-1.7-1c-0.5-0.5-1-1.2-1.3-2.2c-0.4-0.9-0.5-2.2-0.5-3.7c0-0.8,0.1-1.6,0.3-2.4
	c0.2-0.8,0.5-1.6,1-2.3c0.4-0.7,1-1.3,1.7-1.7c0.7-0.4,1.4-0.6,2.3-0.6c0.6,0,1.2,0.1,1.9,0.3c0.7,0.2,1.4,0.6,2.2,1v-7.9h2.5v16.4
	c0,0.7,0.1,1.2,0.3,1.7c0.2,0.4,0.4,0.8,0.6,1c0.2,0.2,0.4,0.4,0.6,0.6L558,345.5z M535.9,345.4c-0.5,0-0.8-0.2-1.2-0.5
	s-0.5-0.7-0.5-1.2c0-0.5,0.2-0.9,0.5-1.2c0.3-0.3,0.7-0.5,1.2-0.5c0.5,0,0.9,0.2,1.2,0.5c0.3,0.3,0.5,0.7,0.5,1.2
	c0,0.5-0.2,0.8-0.5,1.2C536.8,345.2,536.4,345.4,535.9,345.4z"/>
<path class="st1" d="M634.3,370.5h5.1v1.7h-3.2v3.1h2.5v1.7h-2.5v3.6h3.2v1.7h-5.1V370.5z M626.5,370.5h1.9l1.2,9.2h0l1.2-9.2h1.7
	l-1.8,11.8h-2.5L626.5,370.5z M622.1,380.8c0.6,0,1-0.4,1-1.2v-6.4c0-0.8-0.3-1.2-1-1.2c-0.6,0-1,0.4-1,1.2v6.4
	C621.1,380.4,621.5,380.8,622.1,380.8z M622.1,382.4c-0.9,0-1.6-0.3-2.1-0.8c-0.5-0.5-0.7-1.2-0.7-2.2v-6.2c0-0.9,0.2-1.7,0.7-2.2
	c0.5-0.5,1.2-0.8,2.1-0.8c0.9,0,1.6,0.3,2.1,0.8c0.5,0.5,0.7,1.2,0.7,2.2v6.2c0,0.9-0.2,1.7-0.7,2.2
	C623.7,382.2,623,382.4,622.1,382.4z M612.8,370.5h1.9v10.1h3.1v1.7h-4.9V370.5z M603.2,370.5h5.1v1.7H605v3.1h2.5v1.7H605v3.6h3.2
	v1.7h-5.1V370.5z M597.7,372.2h-1.9v-1.7h5.7v1.7h-1.9v10.1h-1.9V372.2z M592.8,378.4l-0.8-5.8h0l-0.8,5.8H592.8z M590.8,370.5h2.5
	l1.9,11.8h-1.9l-0.3-2.3v0h-2.1l-0.3,2.3h-1.7L590.8,370.5z M584.3,375.5c0.4,0,0.6-0.1,0.8-0.3c0.2-0.2,0.3-0.5,0.3-1v-0.9
	c0-0.4-0.1-0.7-0.2-0.9c-0.2-0.2-0.4-0.3-0.7-0.3h-0.8v3.4H584.3z M581.7,370.5h2.7c1,0,1.7,0.2,2.1,0.7c0.4,0.4,0.7,1.1,0.7,2v0.7
	c0,1.2-0.4,2-1.2,2.3v0c0.4,0.1,0.8,0.4,1,0.8c0.2,0.4,0.3,1,0.3,1.7v2.1c0,0.3,0,0.6,0,0.8c0,0.2,0.1,0.4,0.2,0.6h-1.9
	c-0.1-0.2-0.1-0.4-0.1-0.5c0-0.2,0-0.5,0-0.9v-2.2c0-0.5-0.1-0.9-0.3-1.1c-0.2-0.2-0.5-0.3-0.9-0.3h-0.6v5.1h-1.9V370.5z M577,380.6
	c0.3,0,0.6-0.1,0.7-0.3c0.2-0.2,0.2-0.5,0.2-0.9v-1c0-0.5-0.1-0.9-0.3-1.1c-0.2-0.2-0.5-0.3-0.9-0.3h-0.8v3.6H577z M576.7,375.3
	c0.4,0,0.6-0.1,0.8-0.3c0.2-0.2,0.3-0.5,0.3-1v-0.7c0-0.4-0.1-0.7-0.2-0.9c-0.2-0.2-0.4-0.3-0.7-0.3h-0.9v3.1H576.7z M574.1,370.5
	h2.8c1,0,1.7,0.2,2.1,0.7c0.4,0.4,0.7,1.1,0.7,2v0.5c0,0.6-0.1,1.1-0.3,1.5c-0.2,0.4-0.5,0.7-0.9,0.8v0c0.9,0.3,1.4,1.1,1.4,2.5v1
	c0,0.9-0.2,1.6-0.7,2.1c-0.5,0.5-1.2,0.7-2.1,0.7h-2.9V370.5z M567.1,370.5h5.1v1.7H569v3.1h2.5v1.7H569v3.6h3.2v1.7h-5.1V370.5z
	 M560.5,370.5h1.9v10.1h3.1v1.7h-4.9V370.5z M553.5,370.5h5.1v1.7h-3.2v3.1h2.5v1.7h-2.5v3.6h3.2v1.7h-5.1V370.5z M548.8,382.4
	c-0.9,0-1.6-0.3-2-0.8c-0.5-0.5-0.7-1.2-0.7-2.1v-6.3c0-0.9,0.2-1.6,0.7-2.1c0.5-0.5,1.1-0.8,2-0.8c0.9,0,1.6,0.3,2,0.8
	c0.5,0.5,0.7,1.2,0.7,2.1v1.2h-1.8v-1.4c0-0.7-0.3-1.1-0.9-1.1c-0.6,0-0.9,0.4-0.9,1.1v6.6c0,0.7,0.3,1.1,0.9,1.1
	c0.6,0,0.9-0.4,0.9-1.1v-1.8h1.8v1.7c0,0.9-0.2,1.6-0.7,2.1C550.4,382.2,549.7,382.4,548.8,382.4z M538.6,380.8c0.6,0,1-0.4,1-1.2
	v-6.4c0-0.8-0.3-1.2-1-1.2c-0.6,0-1,0.4-1,1.2v6.4C537.6,380.4,538,380.8,538.6,380.8z M538.6,382.4c-0.9,0-1.6-0.3-2.1-0.8
	c-0.5-0.5-0.7-1.2-0.7-2.2v-6.2c0-0.9,0.2-1.7,0.7-2.2c0.5-0.5,1.2-0.8,2.1-0.8c0.9,0,1.6,0.3,2.1,0.8c0.5,0.5,0.7,1.2,0.7,2.2v6.2
	c0,0.9-0.2,1.7-0.7,2.2C540.2,382.2,539.5,382.4,538.6,382.4z M530.4,372.2h-1.9v-1.7h5.7v1.7h-1.9v10.1h-1.9V372.2z M521.4,380.6
	c0.3,0,0.5-0.1,0.7-0.3c0.2-0.2,0.2-0.5,0.2-0.9v-6.1c0-0.4-0.1-0.7-0.2-0.9c-0.2-0.2-0.4-0.3-0.7-0.3h-0.9v8.4H521.4z M518.6,370.5
	h2.8c0.9,0,1.6,0.2,2.1,0.7c0.5,0.5,0.7,1.2,0.7,2.2v6c0,1-0.2,1.7-0.7,2.2c-0.5,0.5-1.2,0.7-2.1,0.7h-2.8V370.5z M511.6,370.5h5.1
	v1.7h-3.2v3.1h2.5v1.7h-2.5v3.6h3.2v1.7h-5.1V370.5z M506.1,372.2h-1.9v-1.7h5.7v1.7H508v10.1h-1.9V372.2z M497.8,370.5h4.9v1.7
	h-3.1v3.3h2.4v1.7h-2.4v5.1h-1.9V370.5z M493.7,378.4l-0.8-5.8h0l-0.8,5.8H493.7z M491.7,370.5h2.5l1.9,11.8h-1.9l-0.3-2.3v0h-2.1
	l-0.3,2.3h-1.7L491.7,370.5z M485.1,375.5c0.4,0,0.6-0.1,0.8-0.3c0.2-0.2,0.3-0.5,0.3-1v-0.9c0-0.4-0.1-0.7-0.2-0.9
	c-0.2-0.2-0.4-0.3-0.7-0.3h-0.8v3.4H485.1z M482.6,370.5h2.7c1,0,1.7,0.2,2.1,0.7c0.4,0.4,0.7,1.1,0.7,2v0.7c0,1.2-0.4,2-1.2,2.3v0
	c0.4,0.1,0.8,0.4,1,0.8c0.2,0.4,0.3,1,0.3,1.7v2.1c0,0.3,0,0.6,0,0.8c0,0.2,0.1,0.4,0.2,0.6h-1.9c-0.1-0.2-0.1-0.4-0.1-0.5
	c0-0.2,0-0.5,0-0.9v-2.2c0-0.5-0.1-0.9-0.3-1.1c-0.2-0.2-0.5-0.3-0.9-0.3h-0.6v5.1h-1.9V370.5z M477.9,382.4c-0.9,0-1.6-0.3-2-0.8
	c-0.5-0.5-0.7-1.2-0.7-2.1v-6.3c0-0.9,0.2-1.6,0.7-2.1c0.5-0.5,1.1-0.8,2-0.8c0.9,0,1.6,0.3,2,0.8c0.5,0.5,0.7,1.2,0.7,2.1v1.2h-1.8
	v-1.4c0-0.7-0.3-1.1-0.9-1.1c-0.6,0-0.9,0.4-0.9,1.1v6.6c0,0.7,0.3,1.1,0.9,1.1c0.6,0,0.9-0.4,0.9-1.1v-1.8h1.8v1.7
	c0,0.9-0.2,1.6-0.7,2.1C479.5,382.2,478.8,382.4,477.9,382.4z M469.2,382.3h-0.6v-1.8h1.8v1.6l-0.9,2.2h-0.9L469.2,382.3z
	 M464.4,377.3l-2.2-6.8h2l1.3,4.3h0l1.3-4.3h1.8l-2.2,6.8v5h-1.9V377.3z M457.8,375.5c0.4,0,0.6-0.1,0.8-0.3c0.2-0.2,0.3-0.5,0.3-1
	v-0.9c0-0.4-0.1-0.7-0.2-0.9c-0.2-0.2-0.4-0.3-0.7-0.3h-0.8v3.4H457.8z M455.3,370.5h2.7c1,0,1.7,0.2,2.1,0.7c0.4,0.4,0.7,1.1,0.7,2
	v0.7c0,1.2-0.4,2-1.2,2.3v0c0.4,0.1,0.8,0.4,1,0.8c0.2,0.4,0.3,1,0.3,1.7v2.1c0,0.3,0,0.6,0,0.8c0,0.2,0.1,0.4,0.2,0.6h-1.9
	c-0.1-0.2-0.1-0.4-0.1-0.5c0-0.2,0-0.5,0-0.9v-2.2c0-0.5-0.1-0.9-0.3-1.1c-0.2-0.2-0.5-0.3-0.9-0.3h-0.6v5.1h-1.9V370.5z
	 M448.7,370.5h1.9v10.1h3.1v1.7h-4.9V370.5z M441.7,370.5h5.1v1.7h-3.2v3.1h2.5v1.7h-2.5v3.6h3.2v1.7h-5.1V370.5z M431,370.5h1.8
	l0.8,9.1h0l0.9-9.1h2l0.9,9.1h0l0.8-9.1h1.6l-1.2,11.8h-2.3l-0.8-8h0l-0.8,8h-2.5L431,370.5z M424.5,370.5h5.1v1.7h-3.2v3.1h2.5v1.7
	h-2.5v3.6h3.2v1.7h-5.1V370.5z M419.6,382.3c-0.3,0-0.6,0-0.9-0.1v-1.7c0.2,0,0.4,0.1,0.6,0.1c0.4,0,0.6-0.1,0.8-0.3
	c0.2-0.2,0.3-0.5,0.3-0.9v-9.1h1.9v9c0,1-0.2,1.7-0.7,2.2C421.2,382.1,420.5,382.3,419.6,382.3z M411.6,380.6c0.3,0,0.5-0.1,0.7-0.3
	c0.2-0.2,0.2-0.5,0.2-0.9v-6.1c0-0.4-0.1-0.7-0.2-0.9c-0.2-0.2-0.4-0.3-0.7-0.3h-0.9v8.4H411.6z M408.8,370.5h2.8
	c0.9,0,1.6,0.2,2.1,0.7c0.5,0.5,0.7,1.2,0.7,2.2v6c0,1-0.2,1.7-0.7,2.2c-0.5,0.5-1.2,0.7-2.1,0.7h-2.8V370.5z M401.8,370.5h5.1v1.7
	h-3.2v3.1h2.5v1.7h-2.5v3.6h3.2v1.7h-5.1V370.5z M394.5,380.6l3.4-8.5h-3.3v-1.7h5.3v1.7l-3.4,8.5h3.4v1.7h-5.4V380.6z M390.8,370.5
	h1.9v11.8h-1.9V370.5z M384.1,370.5h1.9v10.1h3.1v1.7h-4.9V370.5z M380,378.4l-0.8-5.8h0l-0.8,5.8H380z M378,370.5h2.5l1.9,11.8
	h-1.9l-0.3-2.3v0h-2.1l-0.3,2.3H376L378,370.5z M368.5,370.5h2.3l1.8,7.1h0v-7.1h1.7v11.8h-1.9l-2.2-8.6h0v8.6h-1.7V370.5z
	 M363.6,380.8c0.6,0,1-0.4,1-1.2v-6.4c0-0.8-0.3-1.2-1-1.2c-0.6,0-1,0.4-1,1.2v6.4C362.6,380.4,362.9,380.8,363.6,380.8z
	 M363.6,382.4c-0.9,0-1.6-0.3-2.1-0.8c-0.5-0.5-0.7-1.2-0.7-2.2v-6.2c0-0.9,0.2-1.7,0.7-2.2c0.5-0.5,1.2-0.8,2.1-0.8
	c0.9,0,1.6,0.3,2.1,0.8c0.5,0.5,0.7,1.2,0.7,2.2v6.2c0,0.9-0.2,1.7-0.7,2.2C365.2,382.2,364.5,382.4,363.6,382.4z M356.2,382.4
	c-0.9,0-1.6-0.3-2-0.8c-0.5-0.5-0.7-1.2-0.7-2.2v-0.7h1.8v0.8c0,0.8,0.3,1.1,1,1.1c0.3,0,0.6-0.1,0.7-0.3c0.2-0.2,0.2-0.5,0.2-0.9
	c0-0.5-0.1-0.9-0.3-1.3c-0.2-0.4-0.6-0.8-1.2-1.4c-0.8-0.7-1.3-1.3-1.6-1.8c-0.3-0.5-0.5-1.2-0.5-1.8c0-0.9,0.2-1.7,0.7-2.2
	c0.5-0.5,1.2-0.8,2.1-0.8c0.9,0,1.6,0.3,2,0.8c0.5,0.5,0.7,1.2,0.7,2.2v0.5h-1.8v-0.6c0-0.4-0.1-0.7-0.2-0.9
	c-0.2-0.2-0.4-0.3-0.7-0.3c-0.6,0-0.9,0.4-0.9,1.1c0,0.4,0.1,0.8,0.3,1.2c0.2,0.4,0.6,0.8,1.3,1.3c0.8,0.7,1.3,1.3,1.6,1.8
	c0.3,0.6,0.4,1.2,0.4,1.9c0,1-0.2,1.7-0.7,2.2C357.8,382.2,357.1,382.4,356.2,382.4z M348.7,375.5c0.4,0,0.6-0.1,0.8-0.3
	c0.2-0.2,0.3-0.5,0.3-1v-0.9c0-0.4-0.1-0.7-0.2-0.9c-0.2-0.2-0.4-0.3-0.7-0.3H348v3.4H348.7z M346.1,370.5h2.7c1,0,1.7,0.2,2.1,0.7
	c0.4,0.4,0.7,1.1,0.7,2v0.7c0,1.2-0.4,2-1.2,2.3v0c0.4,0.1,0.8,0.4,1,0.8c0.2,0.4,0.3,1,0.3,1.7v2.1c0,0.3,0,0.6,0,0.8
	c0,0.2,0.1,0.4,0.2,0.6H350c-0.1-0.2-0.1-0.4-0.1-0.5c0-0.2,0-0.5,0-0.9v-2.2c0-0.5-0.1-0.9-0.3-1.1c-0.2-0.2-0.5-0.3-0.9-0.3H348
	v5.1h-1.9V370.5z M339.2,370.5h5.1v1.7H341v3.1h2.5v1.7H341v3.6h3.2v1.7h-5.1V370.5z M334.6,375.8c0.3,0,0.5-0.1,0.7-0.3
	c0.2-0.2,0.2-0.5,0.2-0.9v-1.4c0-0.4-0.1-0.7-0.2-0.9c-0.2-0.2-0.4-0.3-0.7-0.3h-0.9v3.6H334.6z M331.8,370.5h2.7
	c0.9,0,1.6,0.2,2.1,0.7c0.5,0.5,0.7,1.2,0.7,2.2v1.2c0,1-0.2,1.7-0.7,2.2c-0.5,0.5-1.2,0.7-2.1,0.7h-0.9v4.8h-1.9V370.5z"/>
<g>
	<defs>
		<rect id="SVGID_1_" x="432.1" y="168.7" width="95.4" height="76.7"/>
	</defs>
	<clipPath id="SVGID_2_">
		<use xlink:href="#SVGID_1_"  style="overflow:visible;"/>
	</clipPath>
	<g class="st2">
		<defs>
			<rect id="SVGID_3_" x="432.1" y="168.7" width="95.4" height="76.7"/>
		</defs>
		<clipPath id="SVGID_4_">
			<use xlink:href="#SVGID_3_"  style="overflow:visible;"/>
		</clipPath>
		<g transform="matrix(1 0 0 1 -3.051758e-05 0)" style="clip-path:url(#SVGID_4_);">
			
				<image style="overflow:visible;" width="530" height="426" xlink:href="72DF22C8.png"  transform="matrix(0.18 0 0 0.1801 432.062 168.6551)">
			</image>
		</g>
	</g>
</g>
</svg>
